<?xml version="1.0" standalone="no"?><!DOCTYPE svg PUBLIC "-//W3C//DTD SVG 1.1//EN" "http://www.w3.org/Graphics/SVG/1.1/DTD/svg11.dtd"><svg t="1539828932746" class="icon" style="" viewBox="0 0 1024 1024" version="1.1" xmlns="http://www.w3.org/2000/svg" p-id="4984" xmlns:xlink="http://www.w3.org/1999/xlink" width="200" height="200"><defs><style type="text/css"></style></defs><path d="M992 1024H32c-19.2 0-32-12.8-32-32s12.8-32 32-32h960c19.2 0 32 12.8 32 32s-12.8 32-32 32zM224 896h-192c-19.2 0-32-12.8-32-32v-512c0-19.2 12.8-32 32-32h192c19.2 0 32 12.8 32 32v512c0 19.2-12.8 32-32 32zM64 832h128V384H64v448zM608 896h-192c-19.2 0-32-12.8-32-32V32c0-19.2 12.8-32 32-32h192c19.2 0 32 12.8 32 32v832c0 19.2-12.8 32-32 32zM448 832h128V64H448v768zM992 896h-192c-19.2 0-32-12.8-32-32v-640c0-19.2 12.8-32 32-32h192c19.2 0 32 12.8 32 32v640c0 19.2-12.8 32-32 32zM832 832h128V256h-128v576z" fill="#14ADC4" p-id="4985"></path></svg>