<?xml version="1.0" standalone="no"?><!DOCTYPE svg PUBLIC "-//W3C//DTD SVG 1.1//EN" "http://www.w3.org/Graphics/SVG/1.1/DTD/svg11.dtd"><svg t="1547628422886" class="icon" style="" viewBox="0 0 1024 1024" version="1.1" xmlns="http://www.w3.org/2000/svg" p-id="2814" xmlns:xlink="http://www.w3.org/1999/xlink" width="200" height="200"><defs><style type="text/css"></style></defs><path d="M194.2 551.1h88V512h-88v39.1zM719.4 72H399.6v880h528V365.3L719.4 72z m-36.3 840.9H438.7V111.1h244.4v801.8z m205.3 0H722.2V150.7l166.2 224.4v537.8zM194.2 746.7h88v-39.1h-88v39.1z m0 97.7h88v-39.1h-88v39.1zM96.4 952H380V228.4L96.4 306.7V952z m39.2-616l205.3-48.9v625.8H135.6V336z m58.6 312.9h88v-39.1h-88v39.1z m0-195.6h88v-39.1h-88v39.1z m440-254.2H477.8v39.1h156.4v-39.1z m0 391.1H477.8v39.1h156.4v-39.1z m0 195.6H477.8v39.1h156.4v-39.1z m0-97.8H477.8v39.1h156.4V688z m0-391.1H477.8V336h156.4v-39.1z m0 97.8H477.8v39.1h156.4v-39.1z m0 97.7H477.8v39.1h156.4v-39.1z" p-id="2815"></path></svg>