<?xml version="1.0" standalone="no"?><!DOCTYPE svg PUBLIC "-//W3C//DTD SVG 1.1//EN" "http://www.w3.org/Graphics/SVG/1.1/DTD/svg11.dtd"><svg t="1560135520176" class="icon" style="" viewBox="0 0 1024 1024" version="1.1" xmlns="http://www.w3.org/2000/svg" p-id="1663" xmlns:xlink="http://www.w3.org/1999/xlink" width="200" height="200"><defs><style type="text/css"></style></defs><path d="M511.867014 1023.989001c-6.999248 0-14.098486-2.399742-19.797873-7.299216-12.898614-10.998818-14.398453-30.196756-3.399635-43.19536 0.899903-1.099882 92.290086-108.388357 182.18043-236.974543 52.494361-74.991944 94.189882-142.484694 124.08667-200.478465 24.697347-47.894855 53.9942-114.887659 53.9942-162.482545 0-82.991085-34.796262-161.082696-97.889484-220.076359-63.793147-59.39362-148.584039-92.190097-239.074318-92.190097s-175.281171 32.696488-239.074319 92.190097c-63.093222 58.893674-97.889485 136.985285-97.889484 220.076359 0 58.893674 44.095263 147.884114 80.9913 212.077218 40.995596 71.292342 96.089678 152.883577 163.682417 242.573942 10.198904 13.49855 7.399205 32.696488-5.999356 42.795403-13.49855 10.198904-32.696488 7.399205-42.895392-5.999356-69.092578-91.69015-125.586509-175.38116-167.881966-248.973254-59.993555-104.288797-89.190419-183.680269-89.190419-242.573943 0-50.694554 10.698851-99.88927 31.696595-146.084307 20.097841-44.595209 48.994737-84.490924 85.790784-118.68725 75.191923-70.092471 174.881214-108.688324 280.869829-108.688325s205.677906 38.595854 280.869828 108.688325c36.696058 34.296316 65.492965 74.292019 85.790784 118.787239 20.997744 46.295027 31.696595 95.489742 31.696596 146.084308 0 48.794758-19.897863 111.188056-60.893459 190.679516-31.09666 60.493502-74.292019 130.385994-128.486198 207.777681-91.890129 130.985929-184.88014 240.074211-185.780043 241.274081-6.099345 7.099237-14.698421 10.698851-23.397487 10.698851zM511.867014 605.433963c-103.688862 0-188.179785-86.990655-188.179785-193.779184s84.490924-193.879173 188.179785-193.879173 188.279775 86.890666 188.279775 193.779184c0 106.988507-84.390935 193.879173-188.279775 193.879173z m0-326.46493c-69.992481 0-126.88637 59.493609-126.886369 132.685746s56.993878 132.685747 126.886369 132.685747c69.992481 0 126.88637-59.493609 126.88637-132.685747 0.099989-73.192138-56.893888-132.685747-126.88637-132.685746z" p-id="1664"></path></svg>