<?xml version="1.0" standalone="no"?><!DOCTYPE svg PUBLIC "-//W3C//DTD SVG 1.1//EN" "http://www.w3.org/Graphics/SVG/1.1/DTD/svg11.dtd"><svg t="1536980088627" class="icon" style="" viewBox="0 0 1024 1024" version="1.1" xmlns="http://www.w3.org/2000/svg" p-id="5722" xmlns:xlink="http://www.w3.org/1999/xlink" width="200" height="200"><defs><style type="text/css"></style></defs><path d="M414.896552 120.712109H169.777065c-29.151564 0-52.554932 23.403368-52.554932 52.554932V418.797113c0 29.151564 23.403368 52.554932 52.554932 52.554932h245.119487c29.151564 0 52.554932-23.403368 52.554932-52.554932V173.267041c0-28.740978-23.403368-52.554932-52.554932-52.554932z m-13.138733 197.080994H314.303128v87.454692H270.370489V317.793103H182.915798V274.271051h87.454691V186.405774H314.303128v87.454691h87.454691v43.932638z m451.23336-197.080994h-245.119487c-29.151564 0-52.554932 23.403368-52.554932 52.554932V418.797113c0 29.151564 23.403368 52.554932 52.554932 52.554932h245.119487c29.151564 0 52.554932-23.403368 52.554932-52.554932V173.267041c0-28.740978-23.403368-52.554932-52.554932-52.554932z m-13.138733 197.080994h-218.842021V274.271051H839.852446v43.522052zM414.896552 558.806736H169.777065c-29.151564 0-52.554932 23.403368-52.554932 52.554932v245.119487c0 29.151564 23.403368 52.554932 52.554932 52.554932h245.119487c29.151564 0 52.554932-23.403368 52.554932-52.554932v-245.119487c0-29.151564-23.403368-52.554932-52.554932-52.554932z m-29.562149 237.318364l-30.793906 30.793906-61.998396-61.998397-61.998396 61.998397-30.793905-30.793906 61.998396-61.998396L199.339214 672.128308l30.793905-30.793905 61.998397 61.998396 61.998396-61.998396 30.793905 30.793905-61.998396 61.998396 62.408982 61.998396z m467.656776-237.318364h-245.119487c-29.151564 0-52.554932 23.403368-52.554932 52.554932v245.119487c0 29.151564 23.403368 52.554932 52.554932 52.554932h245.119487c29.151564 0 52.554932-23.403368 52.554932-52.554932v-245.119487c0-29.151564-23.403368-52.554932-52.554932-52.554932z m-34.89976 241.013633H642.771451v-43.932638h175.319968v43.932638z m0-87.865277H642.771451v-43.932638h175.319968v43.932638z m0 0" fill="" p-id="5723"></path></svg>