<?xml version="1.0" standalone="no"?><!DOCTYPE svg PUBLIC "-//W3C//DTD SVG 1.1//EN" "http://www.w3.org/Graphics/SVG/1.1/DTD/svg11.dtd"><svg t="1536979412447" class="icon" style="" viewBox="0 0 1024 1024" version="1.1" xmlns="http://www.w3.org/2000/svg" p-id="3289" xmlns:xlink="http://www.w3.org/1999/xlink" width="200" height="200"><defs><style type="text/css"></style></defs><path d="M665.344 490.432c2.496-2.496 4.928-4.864 7.36-4.864h34.048c2.432 0 4.928-2.368 4.928-4.864v-39.04c0-2.368-2.496-4.864-4.928-4.864h-38.912c-2.496 0-7.296 2.496-7.296 4.864l-41.408 43.904c-2.496 2.368-4.864 2.368-4.864 0l-22.016-43.904c-2.368-2.368-4.8-4.864-7.232-4.864h-63.36c-2.432 0-4.864 2.496-4.864 4.864v38.976a5.12 5.12 0 0 0 4.864 4.864h38.976c2.432 0 4.864 2.368 7.296 4.864l14.656 31.616v7.36l-43.904 51.136c-2.432 0-4.864 2.496-7.296 2.496h-34.112c-2.432 0-4.864 2.496-4.864 4.864v38.976c0 2.368 2.432 4.864 4.864 4.864h38.976c2.432 0 7.296-2.496 7.296-4.864l56.064-63.36c2.432-2.496 4.864-2.496 4.864 0l31.616 63.36c0 2.368 4.928 4.864 7.296 4.864h38.976c2.432 0 4.928-2.496 4.928-4.864v-38.912c0-2.368-2.496-4.864-4.928-4.864h-14.592c-2.496 0-4.864-2.496-7.296-4.864l-24.448-48.768v-7.36l29.312-31.616m-199.872-151.104a94.72 94.72 0 0 0-31.616 48.768l-12.16 48.768h-70.656c-2.432 0-4.864 2.496-4.864 4.864v38.976a5.12 5.12 0 0 0 4.864 4.864h58.432l-36.48 146.24c-7.36 29.248-26.816 24.384-26.816 24.384h-24.448v48.768h24.384c19.456 0 38.976-2.496 48.768-14.592 12.16-12.096 19.52-34.112 24.32-58.496l36.544-146.24h56.064c2.496 0 4.928-2.368 4.928-4.864v-39.104c0-2.368-2.432-4.864-4.928-4.864h-43.904l12.16-46.272c2.432-7.36 14.656-19.52 21.952-24.384 26.816-19.52 63.36-7.36 87.744-2.496v-41.344c-24.32-4.864-77.952-21.888-124.288 17.024m0 0" p-id="3290"></path><path d="M1015.552 512.128a502.656 502.656 0 0 0-503.68-503.68 502.208 502.208 0 0 0-356.096 147.264 502.016 502.016 0 0 0-147.328 356.416 500.288 500.288 0 0 0 146.816 356.736 499.584 499.584 0 0 0 356.544 146.688c277.312-2.816 503.744-226.24 503.744-503.424z m-947.968 0a444.288 444.288 0 0 1 444.288-444.544c246.976 0 447.296 200.128 447.296 444.544 0 244.032-200.32 444.416-447.296 444.416a442.304 442.304 0 0 1-444.288-444.416z" p-id="3291"></path></svg>