<?xml version="1.0" standalone="no"?><!DOCTYPE svg PUBLIC "-//W3C//DTD SVG 1.1//EN" "http://www.w3.org/Graphics/SVG/1.1/DTD/svg11.dtd"><svg t="1539829277134" class="icon" style="" viewBox="0 0 1024 1024" version="1.1" xmlns="http://www.w3.org/2000/svg" p-id="5344" xmlns:xlink="http://www.w3.org/1999/xlink" width="200" height="200"><defs><style type="text/css"></style></defs><path d="M992 0H32C12.8 0 0 12.8 0 32v960c0 19.2 12.8 32 32 32h960c19.2 0 32-12.8 32-32V32c0-19.2-12.8-32-32-32zM960 960H64V64h896v896z" fill="#14ADC4" p-id="5345"></path><path d="M224 704H320v160c0 19.2 12.8 32 32 32h320c19.2 0 32-12.8 32-32V704h96c19.2 0 32-12.8 32-32v-448c0-19.2-12.8-32-32-32h-576c-12.8 0-32 12.8-32 32v448c0 19.2 19.2 32 32 32zM256 256h128v224c0 19.2 12.8 32 32 32s32-12.8 32-32V256h128v224c0 19.2 12.8 32 32 32s32-12.8 32-32V256h128v384h-96c-19.2 0-32 12.8-32 32V832H384v-160c0-19.2-12.8-32-32-32H256V256z" fill="#14ADC4" p-id="5346"></path></svg>