<?xml version="1.0" standalone="no"?><!DOCTYPE svg PUBLIC "-//W3C//DTD SVG 1.1//EN" "http://www.w3.org/Graphics/SVG/1.1/DTD/svg11.dtd"><svg t="1543290307707" class="icon" style="" viewBox="0 0 1024 1024" version="1.1" xmlns="http://www.w3.org/2000/svg" p-id="1189" xmlns:xlink="http://www.w3.org/1999/xlink" width="200" height="200"><defs><style type="text/css"></style></defs><path d="M819.2 864 819.2 403.2 691.2 460.8 691.2 864 595.2 864 595.2 492.8 505.6 537.6 467.2 499.2 467.2 864 396.8 864 396.8 448 268.8 518.4 268.8 864 160 864 160 128 128 128 128 864 128 896 160 896 896 896 896 864Z" p-id="1190"></path><path d="M435.2 364.8 512 499.2 544 480 544 480 793.6 332.8 844.8 416 883.2 256 723.2 217.6 774.4 300.8 524.8 448 448 313.6 448 313.6 448 313.6 192 467.2 211.2 499.2Z" p-id="1191"></path></svg>