<?xml version="1.0" standalone="no"?><!DOCTYPE svg PUBLIC "-//W3C//DTD SVG 1.1//EN" "http://www.w3.org/Graphics/SVG/1.1/DTD/svg11.dtd"><svg t="1547691172475" class="icon" style="" viewBox="0 0 1024 1024" version="1.1" xmlns="http://www.w3.org/2000/svg" p-id="2033" xmlns:xlink="http://www.w3.org/1999/xlink" width="200" height="200"><defs><style type="text/css"></style></defs><path d="M512.125355 146.402371c97.487312 0 181.39842 72.188112 196.204637 168.233586 15.220656-4.732791 30.847565-7.199982 46.684252-7.199982 43.806715 0 83.293031 17.686824 112.083751 46.273906 28.79379 28.587082 46.070268 68.485791 46.070268 112.086821 0 41.339524-16.039301 79.797417-42.367947 107.768469l37.433564 37.639249c16.863063 16.658402 29.407774 35.372625 37.84084 55.735395 8.634658 20.976754 12.95608 42.983977 12.95608 66.427922l0 46.687322c0 12.543687-3.90903 25.499767-11.105942 35.785018-7.608282 11.103896-19.333324 18.509563-33.93488 20.565385-1.233084 0.410346-2.055822 0.410346-3.289929 0.410346l-36.404118 0 0 12.341073c0 16.452717-12.95608 28.998451-28.996404 28.998451l-0.822738 0L179.364599 878.155331l-0.822738 0c-15.836687 0-28.79379-12.545734-28.79379-28.998451l0-12.341073-36.402071 0c-1.027399 0-2.260483 0-3.291976-0.410346-14.808264-2.055822-26.324552-9.461489-33.93488-20.565385-7.194866-10.285251-11.307533-23.24133-11.307533-35.785018l0-46.687322c0-23.443945 4.523013-45.451168 12.957103-66.427922 8.637728-20.361747 21.385053-39.076994 37.84084-55.735395l37.638225-37.639249c-26.533306-27.971052-42.573631-66.429968-42.573631-107.768469 0-43.600007 17.684778-83.499739 46.476521-112.086821 28.382421-28.587082 68.283176-46.273906 111.883183-46.273906 16.037255 0 31.670304 2.467191 46.480614 7.199982C330.528414 218.590484 414.231791 146.402371 512.125355 146.402371L512.125355 146.402371zM601.383238 820.364113 601.383238 820.364113l0-25.502837 0-0.410346 0.411369-2.467191L601.794607 688.944991c0-9.869788 7.818059-17.480116 17.277502-17.480116 9.458419 0 17.273409 7.611352 17.273409 17.480116l0 76.30078 74.863035 0c1.031493-1.644453 1.644453-4.112668 1.644453-6.580882l0-61.287855c0-22.623253-3.700275-42.982954-11.722996-61.904908l0 0 0 0c-4.727675-10.899234-10.900258-22.0062-18.506493-32.700773l-0.208754 0-0.411369-0.411369 0-0.205685-0.410346-0.410346-0.411369-0.411369c-4.523013-5.963829-9.66615-11.724019-15.214517-17.48114l0 0-62.317301-62.318324c-27.357068 14.396895-58.617026 22.827915-91.52246 22.827915-33.316803 0-64.167438-8.43102-91.929736-22.827915l-61.903885 62.318324 0 0c-5.759167 5.757121-11.104919 11.517311-15.633049 17.48114l0 0.411369-0.61603 0.410346 0 0.205685-0.613984 0.411369c-7.408737 10.694573-13.577227 21.801539-18.511609 32.700773-7.820106 18.921955-11.725042 39.281655-11.725042 61.904908l0 61.287855c0 2.468215 0.61603 4.935406 1.438769 6.580882l74.863035 0 0-76.30078c0-9.869788 7.814989-17.480116 17.482163-17.480116s17.480116 7.611352 17.480116 17.480116l0 103.037724 0 2.467191 0 0.410346 0 25.502837L601.383238 820.36309 601.383238 820.364113zM512.125355 486.36311 512.125355 486.36311c76.30078 0 140.470265-62.315254 140.470265-141.083226 0-77.331249-62.729693-140.674926-140.470265-140.674926-77.737502 0-140.877541 63.343677-140.877541 140.674926C371.247814 424.047856 435.413206 486.36311 512.125355 486.36311L512.125355 486.36311zM208.156342 820.364113 208.156342 820.364113l84.323501 0c-10.900258-3.700275-19.744693-11.311627-26.326599-20.565385-8.433066-11.722996-12.957103-26.736944-12.957103-41.132816l0-61.287855c0-26.118867 4.112668-50.593282 12.134365-73.216535-23.034623-0.822738-45.246507-6.581905-64.987107-15.628956l-43.6041 43.187615c-11.514241 11.930727-19.7406 24.063045-25.501814 37.431517l0 0.203638c-5.345752 13.368472-8.224312 28.177759-8.224312 44.013423l0 45.245484 50.386574 0 0-51.208289c0-9.871835 8.021697-17.48114 17.480116-17.48114 9.464559 0 17.277502 7.609305 17.277502 17.48114L208.157365 820.364113 208.156342 820.364113zM315.718103 376.951211 315.718103 376.951211c-5.143137-2.672876-10.900258-4.937452-16.659425-7.198959-9.457396-2.673899-19.333324-4.319375-30.024827-4.319375-27.560706 0-52.651151 11.517311-71.157643 29.40982-17.688871 18.098193-29.205159 43.189661-29.205159 70.954005 0 27.559683 11.516288 52.651151 29.205159 70.749344l0 0c18.506493 18.099217 43.596937 29.410843 71.157643 29.410843 6.991228 0 13.778818-0.617054 19.744693-1.853208 4.112668-1.233084 8.224312-2.25946 12.133342-3.493567 5.139044-5.965875 10.485819-12.135388 16.246009-17.689894l55.94108-55.736419-1.440815-1.233084 0 0-0.204661 0c-26.734898-26.942629-43.602054-59.229986-53.06252-96.042403-0.411369-2.673899-1.234107-6.17156-2.055822-9.255805l0-1.029446-0.206708-0.822738L315.718103 376.951211 315.718103 376.951211zM815.89073 820.364113 815.89073 820.364113l0-92.958158c0-9.871835 7.611352-17.48114 17.482163-17.48114 9.461489 0 17.277502 7.609305 17.277502 17.48114l0 51.208289 50.592258 0 0-45.245484c0-15.835663-3.085268-30.643927-8.639774-44.013423l0.411369 0-0.411369-0.203638c-5.345752-13.368472-13.983479-25.50079-25.092491-37.431517l-44.008306-43.187615c-19.334347 9.048073-41.542138 14.807241-64.98813 15.628956 8.224312 22.62223 12.133342 47.096644 12.133342 73.216535l0 61.287855c0 14.395872-4.320399 29.40982-12.544711 41.132816-6.788613 9.253758-15.633049 16.864086-26.536376 20.565385L815.89073 820.364113 815.89073 820.364113zM708.329992 376.951211 708.329992 376.951211l-0.411369 1.850138 0 0.822738-0.410346 0.618077 0 0.411369c-7.816013 39.48734-26.117844 76.299757-54.911634 105.298208l-0.206708 0 0 0-1.233084 1.233084 55.529711 55.736419 0 0c6.167466 5.554506 11.513218 11.724019 16.447601 17.689894 3.707438 1.234107 7.820106 2.260483 12.136412 3.493567l-0.204661 0 0.204661 0c5.965875 1.236154 12.95608 1.853208 19.744693 1.853208 27.767414 0 52.852742-11.31265 70.954005-29.410843 18.10024-18.098193 29.40675-43.189661 29.40675-70.749344 0-27.764344-11.307533-52.855812-29.40675-70.954005-18.10024-17.892509-43.186591-29.40982-70.954005-29.40982-10.488889 0-20.772093 1.644453-29.819143 4.319375C719.432865 372.013759 713.675744 374.278335 708.329992 376.951211L708.329992 376.951211z" p-id="2034" fill="#cdcdcd"></path></svg>