<?xml version="1.0" standalone="no"?><!DOCTYPE svg PUBLIC "-//W3C//DTD SVG 1.1//EN" "http://www.w3.org/Graphics/SVG/1.1/DTD/svg11.dtd"><svg t="1545465087896" class="icon" style="" viewBox="0 0 1024 1024" version="1.1" xmlns="http://www.w3.org/2000/svg" p-id="29335" xmlns:xlink="http://www.w3.org/1999/xlink" width="200" height="200"><defs><style type="text/css"></style></defs><path d="M745.146 353.22c-11.707-5.82-23.356-4.765-33.99 2.857-9.627 6.885-13.72 16.667-13.72 28.407 0.04 137.27 0.032 274.54 0.032 411.81v3.366H326.565v-3.201-321.016c0-30.985 0.073-61.963-0.025-92.949-0.082-23.798-24.813-39.802-46.393-29.864-13.18 6.083-19.573 16.856-19.573 31.379v447.57c0 0.63-0.009 1.26 0.008 1.89 0.417 14.875 10.012 27.261 24.215 31.232 1.67 0.458 3.373 0.794 5.068 1.203 148.248 0 296.488 0 444.737 0.025 2.865-0.843 5.837-1.433 8.58-2.57 12.762-5.224 20.384-17.225 20.384-31.854 0.008-149.108 0.008-298.224 0-447.332 0-0.639 0.016-1.27-0.009-1.908-0.655-13.155-6.614-23.184-18.411-29.045z m98.86-84.624c-3.84-14.735-16.856-24.747-32.23-24.747-64.338-0.008-128.659 0-192.98 0h-3.299v-3.046c0-20.253 0.017-40.498 0-60.751 0-12.01-7.032-20.049-18.951-21.662-0.385-0.049-0.754-0.212-1.13-0.319H429.059c-1.408 0.221-2.824 0.369-4.208 0.68-9.709 2.16-16.275 10.34-16.29 20.458-0.042 20.572-0.017 41.153-0.017 61.725v2.915H212.61c-16.734 0-30.029 11.051-33.107 27.506-0.303 1.63-0.458 3.275-0.687 4.92v0.95c0.393 2.497 0.597 5.043 1.203 7.49 3.758 15.235 16.831 25.133 33.122 25.133h597.832c0.884 0 1.752-0.016 2.628-0.057 14.572-0.754 26.655-10.536 30.38-24.633 0.475-1.826 0.794-3.7 1.195-5.55 0-1.753 0-3.496 0.008-5.24-0.384-1.924-0.687-3.872-1.178-5.772zM574.164 243.71H449.959v-44.068h124.205v44.068z m56.503 488.035c0.008-54.006 0-108.02 0-162.035V408.88c0-0.877 0.016-1.753-0.025-2.62-0.507-12.78-12.885-22.136-25.304-19.132-9.734 2.358-15.956 10.495-15.956 20.982-0.008 107.774 0 215.557 0 323.34 0 0.401-0.008 0.794 0 1.195 0.442 11.879 9.972 20.761 21.695 20.254 11.084-0.5 19.581-9.636 19.59-21.154zM433.48 408.085c0-1.187 0.024-2.382-0.05-3.569-0.499-8.072-4.387-14.072-11.591-17.56-7.303-3.536-14.556-2.865-21.146 1.94-5.952 4.34-8.44 10.389-8.44 17.732 0.032 107.62 0.024 215.23 0.024 322.85 0 0.556 0.008 1.112 0.025 1.67 0.45 15.725 17.6 25.23 31.076 17.1 7.163-4.314 10.134-10.904 10.126-19.213-0.065-53.695-0.033-107.382-0.033-161.068 0-53.294 0.009-106.588 0.009-159.882z m81.987 343.676c10.348-1.932 17.15-10.184 17.15-20.917 0.017-54.006 0-108.012 0-162.018V408.003c0-1.04 0.017-2.07-0.049-3.094-0.67-12.353-12.689-21.457-24.772-18.755-10.004 2.227-16.348 10.397-16.348 21.104v323.079c0 0.728 0 1.44 0.024 2.153 0.41 12.091 12.116 21.497 23.995 19.27z" p-id="29336"></path></svg>