<?xml version="1.0" standalone="no"?><!DOCTYPE svg PUBLIC "-//W3C//DTD SVG 1.1//EN" "http://www.w3.org/Graphics/SVG/1.1/DTD/svg11.dtd"><svg t="1545373728865" class="icon" style="" viewBox="0 0 1024 1024" version="1.1" xmlns="http://www.w3.org/2000/svg" p-id="3264" xmlns:xlink="http://www.w3.org/1999/xlink" width="200" height="200"><defs><style type="text/css"></style></defs><path d="M0 0v1024h1024V0H0z m989.866667 989.866667H34.133333V34.133333h955.733334v955.733334z" fill="#0088ff" p-id="3265"></path><path d="M262.826667 719.36c2.56-10.24 6.826667-20.48 12.8-29.013333 10.24-15.36 23.893333-27.306667 38.4-38.4 21.333333-16.213333 43.52-29.013333 67.413333-40.96 1.706667-0.853333 3.413333-2.56 5.12-4.266667 29.866667-51.2 56.32-104.106667 79.36-159.573333 0.853333-1.706667 0.853333-3.413333 0-5.12-8.533333-29.866667-16.213333-59.733333-19.626667-91.306667-1.706667-18.773333-3.413333-38.4 1.706667-57.173333 2.56-10.24 6.826667-18.773333 17.066667-23.893334 3.413333-1.706667 6.826667-2.56 10.24-4.266666H485.546667c17.066667 2.56 25.6 14.506667 30.72 29.013333 5.12 14.506667 5.973333 29.013333 5.973333 43.52 0 30.72-3.413333 61.44-12.8 91.306667-0.853333 3.413333-0.853333 6.826667 0.853333 10.24 11.946667 25.6 28.16 47.786667 46.933334 69.12 14.506667 16.213333 30.72 30.72 48.64 43.52 0.853333 0.853333 3.413333 1.706667 4.266666 0.853333 24.746667-3.413333 50.346667-5.973333 75.946667-5.973333 15.36 0 31.573333 1.706667 46.08 6.826666 10.24 4.266667 18.773333 10.24 23.893333 20.48 5.12 11.946667 2.56 39.253333-11.093333 47.786667-8.533333 5.973333-17.92 7.68-28.16 7.68-19.626667 0-38.4-4.266667-57.173333-10.24-23.04-7.68-46.08-17.066667-67.413334-29.013333-1.706667-0.853333-3.413333-0.853333-5.12-0.853334-38.4 5.973333-75.946667 14.506667-113.493333 23.893334-17.92 4.266667-35.84 9.386667-52.906667 14.506666-2.56 0.853333-4.266667 1.706667-5.12 4.266667-14.506667 25.6-29.866667 52.053333-48.64 75.093333-12.8 15.36-26.453333 29.866667-44.373333 39.253334-5.973333 3.413333-12.8 4.266667-18.773333 6.826666h-9.386667l-0.853333-0.853333c-14.506667-2.56-25.6-9.386667-30.72-24.746667v-8.533333z m287.573333-154.453333c-24.746667-22.186667-45.226667-46.08-62.293333-74.24-15.36 35.84-31.573333 69.973333-51.2 104.106666 37.546667-11.946667 75.093333-21.333333 113.493333-29.866666zM486.4 292.693333c-6.826667 11.093333-3.413333 66.56 4.266667 81.066667l0.853333-0.853333c0-0.853333 0.853333-2.56 0.853333-3.413334 2.56-14.506667 3.413333-29.866667 2.56-44.373333-0.853333-8.533333-2.56-17.066667-4.266666-24.746667-0.853333-2.56-2.56-5.12-4.266667-7.68z m179.2 290.986667v1.706667c7.68 2.56 15.36 5.973333 23.04 8.533333 11.946667 4.266667 24.746667 6.826667 37.546667 5.973333 3.413333 0 7.68-1.706667 11.093333-2.56v-1.706666c-23.04-11.946667-47.786667-11.946667-71.68-11.946667zM301.226667 721.92s0.853333 0 0.853333 0.853333c17.92-12.8 30.72-30.72 42.666667-49.493333-13.653333 11.946667-26.453333 23.893333-37.546667 38.4-2.56 3.413333-4.266667 6.826667-5.973333 10.24z" fill="#0088ff" p-id="3266"></path><path d="M262.826667 730.453333c5.12 14.506667 16.213333 21.333333 30.72 24.746667 0.853333 0 0.853333 0 0.853333 0.853333" fill="#0088ff" p-id="3267"></path></svg>