<?xml version="1.0" standalone="no"?><!DOCTYPE svg PUBLIC "-//W3C//DTD SVG 1.1//EN" "http://www.w3.org/Graphics/SVG/1.1/DTD/svg11.dtd"><svg t="1541472363717" class="icon" style="" viewBox="0 0 1024 1024" version="1.1" xmlns="http://www.w3.org/2000/svg" p-id="1467" xmlns:xlink="http://www.w3.org/1999/xlink" width="200" height="200"><defs><style type="text/css"></style></defs><path d="M209.163275 354.075201 209.163275 354.075201l-57.108672 57.108672 57.108672 0L209.163275 354.075201 209.163275 354.075201zM123.499244 456.872448l0.002047 0 0-11.419074-17.133216 0c-5.710049 0-11.422144 0-17.131169-5.711072-5.712095-5.711072-5.712095-22.843264 0-28.554336l131.348514-131.351584 0 0 0 0 0 0 0 0 0 0 0 0 0 0 0 0 0 0 0 0 0 0 0 0 0 0 0 0 0 0 0 0 0 0 0 0 0 0 0 0 0 0 0 0 0 0 0 0 0 0 0 0 0 0L700.305225 62.820768c5.711072 0 5.711072 0 11.422144 0 5.710049 0 11.42112 0 17.131169 5.711072l0 0L928.744008 285.546432c5.711072 5.710049 5.711072 11.422144 5.711072 17.133216l0 131.351584c0 11.420097-11.420097 22.842241-22.843264 22.842241l-182.752254 0 0 308.390719 0 137.920186 148.485823 0c17.134239 0 34.266431 12.018731 34.266431 29.1499 0 17.133216-17.132192 27.103288-34.266431 27.103288L409.047722 959.437565c-17.134239 0-34.265408-10.993378-34.265408-28.126594 0-17.134239 17.131169-28.126594 34.265408-28.126594L547.298436 903.184377 547.298436 541.679973l-52.586682 0c-17.134239 0-34.267455-4.855588-34.267455-21.985734l0-62.821791L169.185772 456.872448l0 228.437759c0 11.419074-11.419074 22.843264-22.843264 22.843264-11.420097 0-22.844288-11.420097-22.844288-22.843264L123.49822 456.872448 123.499244 456.872448zM534.688233 329.615113l-68.531839 0 0 64.437591 68.531839-68.530816L534.688233 329.615113zM678.652066 616.779392l0-69.388347-77.478606 0 0 69.388347 87.711667 0L678.652066 616.779392zM608.930121 354.075201 608.930121 354.075201l-90.184999 79.951937 0 51.399647 151.816684 0L670.561807 354.075201 608.930121 354.075201 608.930121 354.075201zM678.652066 903.183354 678.652066 794.248316l-77.478606 0L601.17346 903.183354 678.652066 903.183354zM688.885128 285.544385 688.885128 285.544385 688.885128 165.613922 614.642217 285.544385 688.885128 285.544385 688.885128 285.544385zM323.38369 285.544385 323.38369 285.544385 563.241546 285.544385l91.376127-154.195871L323.38369 285.544385 323.38369 285.544385zM728.859561 137.061632 728.859561 137.061632 728.859561 285.546432l137.063679 0L728.859561 137.061632 728.859561 137.061632zM422.088736 329.615113l-77.477582 0 0 77.476559 77.477582 0L422.088736 329.615113zM300.539402 411.18592l0-85.663008-47.306422 0 0 85.663008L300.539402 411.18592 300.539402 411.18592zM791.680329 407.092695l0-77.476559-57.109696 0 0 77.476559L791.680329 407.092695 791.680329 407.092695zM890.383328 407.092695l0-77.476559-54.633295 0 0 77.476559 58.726519 0L890.383328 407.092695zM678.652066 742.41888l0-76.455299-77.478606 0 0 76.455299 87.711667 0L678.652066 742.41888z" p-id="1468" fill="#e6e6e6"></path></svg>