<?xml version="1.0" standalone="no"?><!DOCTYPE svg PUBLIC "-//W3C//DTD SVG 1.1//EN" "http://www.w3.org/Graphics/SVG/1.1/DTD/svg11.dtd"><svg t="1558942284075" class="icon" style="" viewBox="0 0 1024 1024" version="1.1" xmlns="http://www.w3.org/2000/svg" p-id="2627" xmlns:xlink="http://www.w3.org/1999/xlink" width="200" height="200"><defs><style type="text/css"></style></defs><path d="M492.1 184c-18.2 0-37.5 3.8-37.5 37l16 400.5c0 20.3 16.4 36.6 36.6 36.6h3.8V184.3h-3.8c-4.6 0-9.7-0.3-15.1-0.3z m0 0" fill="" p-id="2628"></path><path d="M526.3 184c-5.3 0-10.5 0.3-15.1 0.3h-3.8V658h3.8c20.3 0 36.6-16.4 36.6-36.6l16-400.5c0-33.1-19.3-36.9-37.5-36.9z m0 0M447.9 776.4c0 35.4 28.7 64.1 64.1 64.1 35.4 0 64.1-28.7 64.1-64.1s-28.7-64.1-64.1-64.1c-35.4 0-64.1 28.7-64.1 64.1z m0 0" fill="" p-id="2629"></path><path d="M512 64c60.5 0 119.2 11.8 174.4 35.2 53.3 22.6 101.3 54.9 142.4 96 41.2 41.2 73.5 89.1 96 142.4C948.2 392.8 960 451.5 960 512s-11.8 119.2-35.2 174.4c-22.6 53.3-54.9 101.3-96 142.4-41.2 41.2-89.1 73.5-142.4 96C631.2 948.2 572.5 960 512 960s-119.2-11.8-174.4-35.2c-53.3-22.6-101.3-54.9-142.4-96-41.2-41.2-73.5-89.1-96-142.4C75.8 631.2 64 572.5 64 512s11.8-119.2 35.2-174.4c22.6-53.3 54.9-101.3 96-142.4s89.1-73.5 142.4-96C392.8 75.8 451.5 64 512 64m0-64C229.2 0 0 229.2 0 512s229.2 512 512 512 512-229.2 512-512S794.8 0 512 0z" fill="" p-id="2630"></path></svg>