<?xml version="1.0" standalone="no"?><!DOCTYPE svg PUBLIC "-//W3C//DTD SVG 1.1//EN" "http://www.w3.org/Graphics/SVG/1.1/DTD/svg11.dtd"><svg t="1539587510607" class="icon" style="" viewBox="0 0 1024 1024" version="1.1" xmlns="http://www.w3.org/2000/svg" p-id="1859" xmlns:xlink="http://www.w3.org/1999/xlink" width="200" height="200"><defs><style type="text/css"></style></defs><path d="M512 512c68.266667 0 119.466667 56.888889 119.466667 125.155556s-56.888889 125.155556-119.466667 125.155555-119.466667-56.888889-119.466667-125.155555S443.733333 512 512 512m0-51.2c-91.022222 0-170.666667 79.644444-170.666667 176.355556 0 96.711111 73.955556 176.355556 170.666667 176.355555s170.666667-79.644444 170.666667-176.355555c0-96.711111-79.644444-176.355556-170.666667-176.355556" fill="#ffffff" p-id="1860"></path><path d="M870.4 460.8c28.444444 56.888889 39.822222 113.777778 39.822222 176.355556s-11.377778 125.155556-39.822222 176.355555l51.2 22.755556c28.444444-62.577778 45.511111-130.844444 45.511111-204.8 0-68.266667-17.066667-136.533333-45.511111-199.111111l-51.2 28.444444zM147.911111 802.133333c-22.755556-51.2-34.133333-108.088889-34.133333-164.977777C113.777778 409.6 295.822222 227.555556 512 227.555556c68.266667 0 130.844444 17.066667 187.733333 45.511111l22.755556-45.511111c-62.577778-34.133333-136.533333-56.888889-210.488889-56.888889-250.311111 0-455.111111 204.8-455.111111 460.8 0 68.266667 11.377778 130.844444 39.822222 187.733333l51.2-17.066667zM865.678222 338.602667l-218.737778 223.687111-40.675555-39.765334 218.737778-223.744z" fill="#ffffff" p-id="1861"></path></svg>